<svg preserveAspectRatio="none" width="100%" height="100%" overflow="visible" style="display: block;" viewBox="0 0 186 186" fill="none" xmlns="http://www.w3.org/2000/svg">
<g id="dove-solid 1" clip-path="url(#clip0_2002_24)">
<path id="Vector" d="M104.625 60.7396V50.5314C94.3809 37.3443 87.5149 21.7232 84.9719 5.04857C84.209 0.14427 78.0696 -1.78112 74.8727 2.03333C67.2075 11.079 61.177 21.6869 57.1083 33.4572C69.5325 47.3708 86.1708 56.9251 104.625 60.7396ZM145.313 23.249C129.256 23.249 116.25 36.2908 116.25 52.3478V73.9267C78.3239 71.6744 46.1372 48.3154 31.6059 15.1841C29.6079 10.6431 23.1778 10.3888 21.0708 14.8572C15.0403 27.6083 11.6255 41.849 11.6255 56.8888C11.6255 82.6091 24.0133 106.622 42.5407 124.423C47.336 129.036 52.0223 132.851 56.6723 136.338L4.39616 149.417C0.509049 150.397 -1.2347 154.902 0.944986 158.281C7.26608 168.053 22.8872 184.619 56.5997 185.999C59.5059 186.108 62.4122 185.054 64.6282 183.129L88.3141 162.749H116.25C148.365 162.749 174.375 136.774 174.375 104.66V46.499L186 23.249H145.313ZM145.313 58.1603C142.116 58.1603 139.5 55.5447 139.5 52.3478C139.5 49.1509 142.116 46.5353 145.313 46.5353C148.51 46.5353 151.125 49.1509 151.125 52.3478C151.125 55.5447 148.51 58.1603 145.313 58.1603Z" fill="var(--fill-0, #219D80)"/>
</g>
<defs>
<clipPath id="clip0_2002_24">
<rect width="186" height="186" fill="white"/>
</clipPath>
</defs>
</svg>
