<svg preserveAspectRatio="none" width="100%" height="100%" overflow="visible" style="display: block;" viewBox="0 0 213 171" fill="none" xmlns="http://www.w3.org/2000/svg">
<g id="hands-helping-solid 1" clip-path="url(#clip0_2002_31)">
<path id="Vector" d="M162.412 63.8987H111.825V82.5362C111.825 95.7488 101.075 106.499 87.8624 106.499C74.6498 106.499 63.8999 95.7488 63.8999 82.5362V42.0662L42.3004 55.0459C35.8772 58.8732 31.95 65.829 31.95 73.284V89.026L5.32499 104.402C0.232968 107.331 -1.53094 113.854 1.43109 118.946L28.0561 165.074C30.9848 170.166 37.5079 171.896 42.6 168.968L77.0127 149.099H122.475C134.223 149.099 143.775 139.547 143.775 127.799H149.1C154.991 127.799 159.75 123.039 159.75 117.149V95.8487H162.412C166.839 95.8487 170.4 92.2876 170.4 87.8612V71.8862C170.4 67.4598 166.839 63.8987 162.412 63.8987ZM211.569 51.4515L184.944 5.32368C182.015 0.231648 175.492 -1.49898 170.4 1.42977L135.987 21.2987H101.974C97.9799 21.2987 94.086 22.4302 90.6913 24.527L79.5421 31.4827C76.4137 33.4131 74.5499 36.841 74.5499 40.502V82.5362C74.5499 89.8913 80.5073 95.8487 87.8624 95.8487C95.2176 95.8487 101.175 89.8913 101.175 82.5362V53.2487H162.412C172.696 53.2487 181.05 61.6023 181.05 71.8862V81.3713L207.675 65.9954C212.767 63.0334 214.497 56.5435 211.569 51.4515V51.4515Z" fill="var(--fill-0, #219D80)"/>
</g>
<defs>
<clipPath id="clip0_2002_31">
<rect width="213" height="170.4" fill="white"/>
</clipPath>
</defs>
</svg>
