<svg preserveAspectRatio="none" width="100%" height="100%" overflow="visible" style="display: block;" viewBox="0 0 41 39" fill="none" xmlns="http://www.w3.org/2000/svg">
<g id="Group 427320386">
<path id="Vector" d="M28.9936 16.9857C31.0945 16.9857 32.8 15.1497 32.8 12.8865C32.8 10.6218 31.0945 8.78571 28.9936 8.78571C26.8885 8.78571 25.1857 10.6218 25.1857 12.8865C25.1857 15.1497 26.8885 16.9857 28.9936 16.9857Z" fill="var(--fill-0, #E17153)"/>
<path id="Vector_2" d="M29.1722 0.00876775C28.5353 -0.0141007 27.893 0.00742255 27.2548 0.0773734C36.0777 2.07635 35.9305 11.1175 34.7036 14.5303C34.6969 14.5505 34.6888 14.572 34.6822 14.5908C34.1469 16.0584 33.2679 17.6444 31.895 18.4758C30.0459 19.5923 27.6241 18.9627 25.977 17.7722C21.706 14.6863 20.3292 8.10288 14.2907 7.44373C12.1378 7.20967 10.5429 8.17687 10.5429 8.17687C10.5429 8.17687 16.3164 10.3252 20.5111 19.3946C23.6207 26.1206 22.9691 33.7264 22.1823 38.0714C26.3703 35.8276 30.5998 33.3861 33.9141 29.9585C37.3408 26.4152 39.9406 21.8738 40.7675 16.9678C42.0814 9.18309 37.7743 0.326237 29.1722 0.00876775Z" fill="var(--fill-0, #E17153)"/>
<path id="Vector_3" d="M14.0047 29.2525C12.6392 28.5886 11.5312 27.8217 9.95714 26.3571C11.906 29.9082 15.9454 32.5705 20.5 33.9714C20.5 32.6112 20.1879 31.9473 18.9232 31.2292C17.3873 30.3553 15.5897 30.0261 14.0047 29.2525Z" fill="var(--fill-0, #058789)"/>
<path id="Vector_4" d="M11.1286 25.1857C13.0489 27.4044 16.0307 28.4949 19.3286 29.2857C19.3286 27.5795 17.4231 26.9965 16.2482 26.8655C13.6553 26.5746 11.1286 25.1857 11.1286 25.1857Z" fill="var(--fill-0, #058789)"/>
<path id="Vector_5" d="M13.8657 31.8706C11.4165 30.126 9.82553 28.5347 9.05269 25.5807C8.80218 24.6242 8.72223 23.4653 9.42179 22.7812C10.0134 22.201 10.9502 22.2065 11.747 22.4022C12.5438 22.5992 13.3167 22.955 14.1362 22.9604C14.9543 22.9659 16.1709 22.5937 16.2668 21.7564C14.3867 19.641 11.8229 18.177 9.08067 17.6516C8.40643 17.5216 7.75084 17.3984 7.12323 17.2178C6.14252 16.9414 5.23242 16.5282 4.42893 15.7456C3.32562 14.6701 2.63006 13.2362 2.19833 11.7571C1.64668 9.86889 1.49477 7.83155 1.72929 5.85714C0.182264 8.96447 -0.354732 12.734 0.231566 16.286C1.05505 21.2761 3.64409 25.8954 7.05661 29.4994C10.7969 33.4509 15.7112 36.1135 20.4042 38.6571C21.1051 34.7097 17.8618 34.7097 13.8657 31.8706Z" fill="var(--fill-0, #00715D)"/>
<path id="Vector_6" d="M33.2769 4.95693C32.009 2.64315 29.8884 1.13742 26.9756 0.480467L25.9534 0.250534C23.8355 0.680181 21.8516 1.67875 20.4458 3.37237C18.3856 0.890405 15.0813 -0.105533 11.9412 0.00877622C7.69482 0.163817 4.5166 2.42636 2.56684 5.60469L2.44466 6.60851C2.21736 8.47162 2.37239 10.3715 2.89268 12.1046C3.35647 13.651 4.05807 14.8782 4.98039 15.7533C5.57163 16.3143 6.2614 16.6993 7.18504 16.9857C6.93541 16.2381 6.72782 15.4787 6.59118 14.7022C6.19177 12.4685 6.39279 10.0536 7.58708 8.12344C8.90619 5.99098 11.4262 4.65999 13.933 4.77167C16.4372 4.88336 19.3224 6.39566 20.4458 8.63718C21.5691 6.39566 24.4543 4.88336 26.9585 4.77167C29.4654 4.65999 31.9853 5.99098 33.3045 8.12344C34.0139 9.27048 34.3713 10.5883 34.4633 11.9364C34.7076 9.90772 34.529 7.24444 33.2769 4.95693Z" fill="var(--fill-0, #00715D)"/>
</g>
</svg>
