<svg preserveAspectRatio="none" width="100%" height="100%" overflow="visible" style="display: block;" viewBox="0 0 24 24" fill="none" xmlns="http://www.w3.org/2000/svg">
<g id="Social icon">
<path id="Vector" d="M7.55016 21.3957C16.6045 21.3957 21.5583 13.8925 21.5583 7.38761C21.5583 7.17668 21.5536 6.96105 21.5442 6.75011C22.5079 6.05321 23.3395 5.19001 24 4.20105C23.1025 4.60035 22.1496 4.86113 21.1739 4.97449C22.2013 4.35866 22.9705 3.39122 23.3391 2.25152C22.3726 2.82431 21.3156 3.22836 20.2134 3.44636C19.4708 2.65731 18.489 2.13487 17.4197 1.9598C16.3504 1.78474 15.2532 1.9668 14.2977 2.47785C13.3423 2.98889 12.5818 3.80046 12.1338 4.78706C11.6859 5.77367 11.5754 6.88037 11.8195 7.93605C9.86249 7.83784 7.94794 7.32946 6.19998 6.44385C4.45203 5.55824 2.90969 4.31519 1.67297 2.79527C1.0444 3.879 0.852057 5.1614 1.13503 6.38184C1.418 7.60229 2.15506 8.6692 3.19641 9.36574C2.41463 9.34092 1.64998 9.13043 0.965625 8.75167V8.81261C0.964925 9.9499 1.3581 11.0523 2.07831 11.9325C2.79852 12.8127 3.80132 13.4163 4.91625 13.6407C4.19206 13.8389 3.43198 13.8677 2.69484 13.7251C3.00945 14.7032 3.62157 15.5586 4.44577 16.1721C5.26997 16.7855 6.26512 17.1263 7.29234 17.147C5.54842 18.5169 3.39417 19.2599 1.17656 19.2564C0.783287 19.2558 0.390399 19.2317 0 19.1842C2.25286 20.6295 4.87353 21.3971 7.55016 21.3957Z" fill="var(--fill-0, #98A2B3)"/>
</g>
</svg>
