<svg preserveAspectRatio="none" width="100%" height="100%" overflow="visible" style="display: block;" viewBox="0 0 23 23" fill="none" xmlns="http://www.w3.org/2000/svg">
<g id="Group">
<path id="Vector" d="M11.1111 2.00087C14.0799 2.00087 14.4314 2.01389 15.599 2.06597C16.684 2.11372 17.27 2.29601 17.6606 2.44792C18.1771 2.64757 18.5503 2.89063 18.9366 3.27691C19.3273 3.66753 19.566 4.03646 19.7656 4.55295C19.9175 4.94358 20.0998 5.53385 20.1476 6.61458C20.1997 7.78646 20.2127 8.13802 20.2127 11.1024C20.2127 14.0712 20.1997 14.4227 20.1476 15.5903C20.0998 16.6753 19.9175 17.2613 19.7656 17.6519C19.566 18.1684 19.3229 18.5417 18.9366 18.928C18.546 19.3186 18.1771 19.5573 17.6606 19.7569C17.27 19.9089 16.6797 20.0911 15.599 20.1389C14.4271 20.191 14.0755 20.204 11.1111 20.204C8.14236 20.204 7.7908 20.191 6.62326 20.1389C5.5382 20.0911 4.95226 19.9089 4.56163 19.7569C4.04514 19.5573 3.67188 19.3142 3.28559 18.928C2.89497 18.5373 2.65625 18.1684 2.4566 17.6519C2.30469 17.2613 2.1224 16.671 2.07465 15.5903C2.02257 14.4184 2.00955 14.0668 2.00955 11.1024C2.00955 8.13368 2.02257 7.78212 2.07465 6.61458C2.1224 5.52951 2.30469 4.94358 2.4566 4.55295C2.65625 4.03646 2.89931 3.66319 3.28559 3.27691C3.67622 2.88628 4.04514 2.64757 4.56163 2.44792C4.95226 2.29601 5.54254 2.11372 6.62326 2.06597C7.7908 2.01389 8.14236 2.00087 11.1111 2.00087ZM11.1111 0C8.09462 0 7.71701 0.0130208 6.53212 0.0651042C5.35156 0.117188 4.53993 0.30816 3.83681 0.581597C3.1033 0.868056 2.48264 1.24566 1.86632 1.86632C1.24566 2.48264 0.868056 3.1033 0.581597 3.83247C0.30816 4.53993 0.117188 5.34722 0.0651042 6.52778C0.0130208 7.71701 0 8.09462 0 11.1111C0 14.1276 0.0130208 14.5052 0.0651042 15.6901C0.117188 16.8707 0.30816 17.6823 0.581597 18.3854C0.868056 19.1189 1.24566 19.7396 1.86632 20.3559C2.48264 20.9722 3.1033 21.3542 3.83247 21.6363C4.53993 21.9097 5.34722 22.1007 6.52778 22.1528C7.71267 22.2049 8.09028 22.2179 11.1068 22.2179C14.1233 22.2179 14.5009 22.2049 15.6858 22.1528C16.8663 22.1007 17.678 21.9097 18.3811 21.6363C19.1102 21.3542 19.7309 20.9722 20.3472 20.3559C20.9635 19.7396 21.3455 19.1189 21.6276 18.3898C21.901 17.6823 22.092 16.875 22.1441 15.6944C22.1962 14.5096 22.2092 14.1319 22.2092 11.1155C22.2092 8.09896 22.1962 7.72135 22.1441 6.53646C22.092 5.3559 21.901 4.54427 21.6276 3.84115C21.3542 3.1033 20.9766 2.48264 20.3559 1.86632C19.7396 1.25 19.1189 0.868056 18.3898 0.585938C17.6823 0.3125 16.875 0.121528 15.6944 0.0694445C14.5052 0.0130208 14.1276 0 11.1111 0Z" fill="var(--fill-0, #EDEDED)"/>
<path id="Vector_2" d="M11.1111 5.40373C7.96007 5.40373 5.40364 7.96015 5.40364 11.1112C5.40364 14.2622 7.96007 16.8187 11.1111 16.8187C14.2621 16.8187 16.8186 14.2622 16.8186 11.1112C16.8186 7.96015 14.2621 5.40373 11.1111 5.40373ZM11.1111 14.8134C9.06684 14.8134 7.40885 13.1555 7.40885 11.1112C7.40885 9.06692 9.06684 7.40894 11.1111 7.40894C13.1554 7.40894 14.8134 9.06692 14.8134 11.1112C14.8134 13.1555 13.1554 14.8134 11.1111 14.8134Z" fill="var(--fill-0, #EDEDED)"/>
<path id="Vector_3" d="M18.3767 5.17803C18.3767 5.91588 17.7778 6.5105 17.0443 6.5105C16.3064 6.5105 15.7118 5.91154 15.7118 5.17803C15.7118 4.44019 16.3108 3.84557 17.0443 3.84557C17.7778 3.84557 18.3767 4.44453 18.3767 5.17803Z" fill="var(--fill-0, #EDEDED)"/>
</g>
</svg>
