<svg preserveAspectRatio="none" width="100%" height="100%" overflow="visible" style="display: block;" viewBox="0 0 23 23" fill="none" xmlns="http://www.w3.org/2000/svg">
<g id="Social icon" clip-path="url(#clip0_2002_18)">
<path id="Vector" d="M22.2222 11.1111C22.2222 4.97461 17.2476 0 11.1111 0C4.97461 0 0 4.97461 0 11.1111C0 16.6569 4.06315 21.2537 9.375 22.0872V14.3229H6.55382V11.1111H9.375V8.6632C9.375 5.87847 11.0339 4.34028 13.5718 4.34028C14.7871 4.34028 16.059 4.55729 16.059 4.55729V7.29167H14.658C13.2778 7.29167 12.8472 8.14822 12.8472 9.02778V11.1111H15.9288L15.4362 14.3229H12.8472V22.0872C18.1591 21.2537 22.2222 16.6569 22.2222 11.1111Z" fill="var(--fill-0, #EDEDED)"/>
</g>
<defs>
<clipPath id="clip0_2002_18">
<rect width="22.2222" height="22.2222" fill="white"/>
</clipPath>
</defs>
</svg>
