<svg preserveAspectRatio="none" width="100%" height="100%" overflow="visible" style="display: block;" viewBox="0 0 141 146" fill="none" xmlns="http://www.w3.org/2000/svg">
<g id="globe-asia-solid 1">
<path id="Vector" d="M70.5 2.27406C31.563 2.27406 0 33.837 0 72.7741C0 111.711 31.563 143.274 70.5 143.274C109.437 143.274 141 111.711 141 72.7741C141 33.837 109.437 2.27406 70.5 2.27406ZM67.2763 70.5652C66.4548 71.9354 64.9737 72.7741 63.3761 72.7741H63.288C62.0826 72.7741 60.9256 73.2545 60.0728 74.1073L58.4638 75.7163C57.5769 76.6032 57.5769 78.0445 58.4638 78.9314L60.0728 80.5404C60.9256 81.3933 61.4061 82.5502 61.4061 83.7556V86.4192C61.4061 88.9322 59.3707 90.9676 56.8577 90.9676H55.1208C53.3981 90.9676 51.8232 89.9954 51.0528 88.4518L44.6225 75.5941C43.9289 74.2068 42.0783 73.9055 40.981 75.0028L35.4461 80.5347C34.5933 81.3876 33.4363 81.868 32.231 81.868H14.444C13.9635 78.9002 13.6452 75.8783 13.6452 72.7741C13.6452 41.4243 39.1502 15.9192 70.5 15.9192C76.6147 15.9192 82.4964 16.917 88.0198 18.7108L73.7606 29.6639C72.308 30.6333 72.4444 32.808 74.0051 33.5897L77.0838 35.1276C78.6246 35.898 79.5968 37.4729 79.5968 39.1956V61.4031C79.5968 62.6596 78.5791 63.6773 77.3226 63.6773H76.4527C75.5914 63.6773 74.8039 63.1912 74.4201 62.4208C73.9767 61.5339 72.7259 61.4855 72.2142 62.3355L67.2763 70.5652V70.5652ZM115.984 101.892C115.984 103.098 115.503 104.255 114.651 105.107L111.93 107.828C111.077 108.681 109.92 109.161 108.715 109.161H104.405C103.2 109.161 102.043 108.681 101.19 107.828L97.4918 104.129C96.5627 103.2 95.4087 102.528 94.1423 102.177C92.876 101.826 91.5404 101.809 90.2656 102.128L84.2191 103.641C83.858 103.732 83.4885 103.777 83.1161 103.777H80.1767C78.9714 103.777 77.8144 103.297 76.9616 102.444L73.5758 99.058C73.1497 98.631 72.9104 98.0523 72.9106 97.4491V94.5495C72.9106 93.6199 73.4764 92.7841 74.3405 92.4373L85.5239 87.9628C86.0868 87.7382 86.6212 87.4455 87.113 87.0958L93.8531 82.2944C94.2382 82.0201 94.6994 81.873 95.1722 81.8737H98.609C99.5272 81.8737 100.357 82.4252 100.71 83.2751L102.231 86.9281C102.317 87.1351 102.463 87.312 102.649 87.4364C102.836 87.5608 103.055 87.6273 103.28 87.6274H104.36C104.866 87.6274 105.312 87.2919 105.452 86.8087L106.645 82.6952C106.788 82.2091 107.231 81.8765 107.737 81.8765H109.46C110.088 81.8765 110.597 82.3854 110.597 83.0136V86.6893C110.597 87.2919 110.836 87.8719 111.262 88.2983L114.648 91.684C115.501 92.5368 115.981 93.6938 115.981 94.8991V101.892H115.984Z" fill="var(--fill-0, #219D80)"/>
</g>
</svg>
