<svg preserveAspectRatio="none" width="100%" height="100%" overflow="visible" style="display: block;" viewBox="0 0 23 23" fill="none" xmlns="http://www.w3.org/2000/svg">
<g id="Social icon" clip-path="url(#clip0_2002_34)">
<path id="Vector" d="M6.99089 20.1391C15.3746 20.1391 19.9614 13.1916 19.9614 7.16861C19.9614 6.97329 19.957 6.77364 19.9484 6.57833C20.8406 5.93305 21.6106 5.13379 22.2222 4.21809C21.3912 4.58781 20.5089 4.82927 19.6055 4.93423C20.5567 4.36402 21.269 3.46825 21.6102 2.41296C20.7153 2.94333 19.7366 3.31745 18.7161 3.5193C18.0286 2.7887 17.1194 2.30495 16.1293 2.14286C15.1392 1.98076 14.1233 2.14934 13.2387 2.62253C12.354 3.09572 11.6498 3.84717 11.235 4.76069C10.8203 5.67421 10.718 6.69893 10.944 7.67642C9.13194 7.58549 7.3592 7.11476 5.74073 6.29475C4.12225 5.47475 2.69416 4.32377 1.54905 2.91644C0.967038 3.91989 0.788943 5.1073 1.05096 6.23734C1.31297 7.36738 1.99543 8.35526 2.95964 9.0002C2.23577 8.97722 1.52776 8.78233 0.894099 8.43163V8.48805C0.89345 9.5411 1.2575 10.5619 1.92436 11.3769C2.59123 12.1918 3.51975 12.7507 4.55208 12.9585C3.88153 13.142 3.17776 13.1687 2.49523 13.0367C2.78653 13.9423 3.35331 14.7344 4.11646 15.3024C4.8796 15.8704 5.80104 16.186 6.75217 16.2051C5.13743 17.4735 3.14276 18.1614 1.08941 18.1582C0.725268 18.1576 0.361482 18.1353 1.69542e-06 18.0913C2.08598 19.4296 4.51253 20.1404 6.99089 20.1391Z" fill="var(--fill-0, #EDEDED)"/>
</g>
<defs>
<clipPath id="clip0_2002_34">
<rect width="22.2222" height="22.2222" fill="white"/>
</clipPath>
</defs>
</svg>
