<svg preserveAspectRatio="none" width="100%" height="100%" overflow="visible" style="display: block;" viewBox="0 0 39 35" fill="none" xmlns="http://www.w3.org/2000/svg">
<path id="Icon" d="M34.1522 4.68638C33.3009 3.83472 32.2902 3.15912 31.1777 2.69818C30.0653 2.23725 28.873 2 27.6688 2C26.4647 2 25.2723 2.23725 24.1599 2.69818C23.0475 3.15912 22.0367 3.83472 21.1855 4.68638L19.4188 6.45304L17.6522 4.68638C15.9327 2.96689 13.6005 2.00089 11.1688 2.00089C8.7371 2.00089 6.40497 2.96689 4.68548 4.68638C2.966 6.40586 2 8.73799 2 11.1697C2 13.6014 2.966 15.9336 4.68548 17.653L6.45215 19.4197L19.4188 32.3864L32.3855 19.4197L34.1522 17.653C35.0038 16.8018 35.6794 15.7911 36.1403 14.6786C36.6013 13.5662 36.8385 12.3739 36.8385 11.1697C36.8385 9.96556 36.6013 8.77322 36.1403 7.66078C35.6794 6.54835 35.0038 5.53764 34.1522 4.68638V4.68638Z" stroke="var(--stroke-0, #C9F363)" stroke-width="4" stroke-linecap="round" stroke-linejoin="round"/>
</svg>
