<svg preserveAspectRatio="none" width="100%" height="100%" overflow="visible" style="display: block;" viewBox="0 0 23 23" fill="none" xmlns="http://www.w3.org/2000/svg">
<g id="Group">
<path id="Vector" d="M20.5773 0H1.64062C0.733507 0 0 0.716146 0 1.60156V20.6163C0 21.5017 0.733507 22.2222 1.64062 22.2222H20.5773C21.4844 22.2222 22.2222 21.5017 22.2222 20.6207V1.60156C22.2222 0.716146 21.4844 0 20.5773 0ZM6.59288 18.9366H3.29427V8.32899H6.59288V18.9366ZM4.94358 6.88368C3.88455 6.88368 3.02951 6.02865 3.02951 4.97396C3.02951 3.91927 3.88455 3.06424 4.94358 3.06424C5.99826 3.06424 6.8533 3.91927 6.8533 4.97396C6.8533 6.02431 5.99826 6.88368 4.94358 6.88368ZM18.9366 18.9366H15.6424V13.7804C15.6424 12.5521 15.6207 10.9679 13.928 10.9679C12.2135 10.9679 11.9531 12.309 11.9531 13.6936V18.9366H8.6632V8.32899H11.8229V9.77865H11.8663C12.3047 8.94531 13.3811 8.06424 14.9826 8.06424C18.3203 8.06424 18.9366 10.2604 18.9366 13.1163V18.9366V18.9366Z" fill="var(--fill-0, #EDEDED)"/>
</g>
</svg>
